<svg width="37" height="37" viewBox="0 0 37 37" fill="none" xmlns="http://www.w3.org/2000/svg">
<path d="M5.26611 0.912598C4.06215 -0.291358 2.10692 -0.291358 0.902968 0.912598C-0.300989 2.11656 -0.300989 4.07178 0.902968 5.27574L14.1369 18.5L0.912598 31.7339C-0.291358 32.9378 -0.291358 34.8931 0.912598 36.097C2.11656 37.301 4.07178 37.301 5.27574 36.097L18.5 22.8631L31.7339 36.0874C32.9378 37.2914 34.8931 37.2914 36.097 36.0874C37.301 34.8834 37.301 32.9282 36.097 31.7243L22.8631 18.5L36.0874 5.26611C37.2914 4.06215 37.2914 2.10692 36.0874 0.902968C34.8834 -0.300989 32.9282 -0.300989 31.7243 0.902968L18.5 14.1369L5.26611 0.912598Z" fill="white"/>
</svg>
